<svg xmlns="http://www.w3.org/2000/svg" xmlns:osb="http://www.openswatchbook.org/uri/2009/osb" xmlns:xlink="http://www.w3.org/1999/xlink" fill="none" viewBox="0 0 348 348"><defs><linearGradient osb:paint="solid" id="e"><stop offset="0" style="stop-color:#fff;stop-opacity:1"/></linearGradient><linearGradient osb:paint="solid" id="d"><stop offset="0" style="stop-color:#fff;stop-opacity:1"/></linearGradient><linearGradient osb:paint="solid" id="c"><stop offset="0" style="stop-color:#fff;stop-opacity:1"/></linearGradient><linearGradient osb:paint="solid" id="b"><stop offset="0" style="stop-color:#fff;stop-opacity:1"/></linearGradient><linearGradient osb:paint="solid" id="a"><stop offset="0" style="stop-color:#fff;stop-opacity:1"/></linearGradient><linearGradient xlink:href="#a" id="f" x1="10.093" x2="76.585" y1="121.255" y2="121.255" gradientUnits="userSpaceOnUse"/><linearGradient xlink:href="#a" id="g" x1="10.093" x2="76.585" y1="121.255" y2="121.255" gradientTransform="translate(129.212)" gradientUnits="userSpaceOnUse"/><linearGradient xlink:href="#a" id="h" x1="10.093" x2="76.585" y1="121.255" y2="121.255" gradientTransform="translate(64.606)" gradientUnits="userSpaceOnUse"/><linearGradient xlink:href="#b" id="i" x1="-19.047" x2="24.679" y1="226.099" y2="226.099" gradientTransform="matrix(.71062 0 0 1.05599 31.061 25.082)" gradientUnits="userSpaceOnUse"/><linearGradient xlink:href="#b" id="j" x1="-19.047" x2="24.679" y1="226.099" y2="226.099" gradientTransform="matrix(.71062 0 0 1.05599 60.794 25.082)" gradientUnits="userSpaceOnUse"/><linearGradient xlink:href="#b" id="k" x1="-19.047" x2="24.679" y1="226.099" y2="226.099" gradientTransform="matrix(.71062 0 0 1.05599 90.527 25.082)" gradientUnits="userSpaceOnUse"/><linearGradient xlink:href="#b" id="l" x1="-19.047" x2="24.679" y1="226.099" y2="226.099" gradientTransform="matrix(.71062 0 0 1.05599 120.26 25.082)" gradientUnits="userSpaceOnUse"/><linearGradient xlink:href="#b" id="m" x1="-19.047" x2="24.679" y1="226.099" y2="226.099" gradientTransform="matrix(.71062 0 0 1.05599 149.992 25.082)" gradientUnits="userSpaceOnUse"/><linearGradient xlink:href="#b" id="n" x1="-19.047" x2="24.679" y1="226.099" y2="226.099" gradientTransform="matrix(.71062 0 0 1.05599 179.725 25.082)" gradientUnits="userSpaceOnUse"/><linearGradient xlink:href="#b" id="t" x1="-19.047" x2="24.679" y1="226.099" y2="226.099" gradientTransform="matrix(.71062 0 0 1.05599 179.725 69.266)" gradientUnits="userSpaceOnUse"/><linearGradient xlink:href="#b" id="s" x1="-19.047" x2="24.679" y1="226.099" y2="226.099" gradientTransform="matrix(.71062 0 0 1.05599 149.992 69.266)" gradientUnits="userSpaceOnUse"/><linearGradient xlink:href="#b" id="r" x1="-19.047" x2="24.679" y1="226.099" y2="226.099" gradientTransform="matrix(.71062 0 0 1.05599 120.26 69.266)" gradientUnits="userSpaceOnUse"/><linearGradient xlink:href="#b" id="q" x1="-19.047" x2="24.679" y1="226.099" y2="226.099" gradientTransform="matrix(.71062 0 0 1.05599 90.527 69.266)" gradientUnits="userSpaceOnUse"/><linearGradient xlink:href="#b" id="p" x1="-19.047" x2="24.679" y1="226.099" y2="226.099" gradientTransform="matrix(.71062 0 0 1.05599 60.794 69.266)" gradientUnits="userSpaceOnUse"/><linearGradient xlink:href="#b" id="o" x1="-19.047" x2="24.679" y1="226.099" y2="226.099" gradientTransform="matrix(.71062 0 0 1.05599 31.061 69.266)" gradientUnits="userSpaceOnUse"/><linearGradient xlink:href="#c" id="v" x1="211" x2="335.591" y1="224.007" y2="224.007" gradientUnits="userSpaceOnUse"/><linearGradient xlink:href="#d" id="u" x1="228" x2="312.298" y1="125.761" y2="125.761" gradientTransform="translate(1)" gradientUnits="userSpaceOnUse"/><linearGradient xlink:href="#e" id="w" x1="217.915" x2="274.918" y1="315.815" y2="315.815" gradientTransform="translate(-4)" gradientUnits="userSpaceOnUse"/></defs><path stroke="#000" stroke-width="2" d="M5.079 5.776h336.913v337.67H5.08z"/><path stroke="#000" stroke-width="2" d="M282.734 40.554c0-8.376 6.966-15.165 15.56-15.165 4.126 0 8.084 1.597 11.001 4.441 2.918 2.844 4.558 6.702 4.558 10.724 0 8.376-6.966 15.165-15.56 15.165-8.593 0-15.559-6.79-15.559-15.165z"/><path d="M11.036 13.271h64.606V229.24H11.036z" style="opacity:1;fill:url(#f);fill-opacity:1;fill-rule:nonzero;stroke:#000;stroke-width:1.88598425;stroke-miterlimit:4;stroke-dasharray:none;stroke-opacity:1"/><path d="M140.248 13.271h64.606V229.24h-64.606z" style="opacity:1;fill:url(#g);fill-opacity:1;fill-rule:nonzero;stroke:#000;stroke-width:1.8859843;stroke-miterlimit:4;stroke-dasharray:none;stroke-opacity:1"/><path d="M75.642 13.271h64.606V229.24H75.642z" style="opacity:1;fill:url(#h);fill-opacity:1;fill-rule:nonzero;stroke:#000;stroke-width:1.8859843;stroke-miterlimit:4;stroke-dasharray:none;stroke-opacity:1"/><path d="M12.777 235.704h189.988v101.545H12.777z" style="opacity:1;fill:#000;fill-opacity:1;fill-rule:nonzero;stroke:#000;stroke-width:3.01215625;stroke-miterlimit:4;stroke-dasharray:none;stroke-opacity:1"/><path d="M18.196 241.749h29.733v44.183H18.196z" style="opacity:1;fill:url(#i);fill-opacity:1;fill-rule:nonzero;stroke:#000;stroke-width:1.63375545;stroke-miterlimit:4;stroke-dasharray:none;stroke-opacity:1"/><path d="M47.929 241.749h29.733v44.183H47.929z" style="opacity:1;fill:url(#j);fill-opacity:1;fill-rule:nonzero;stroke:#000;stroke-width:1.63375545;stroke-miterlimit:4;stroke-dasharray:none;stroke-opacity:1"/><path d="M77.662 241.749h29.733v44.183H77.662z" style="opacity:1;fill:url(#k);fill-opacity:1;fill-rule:nonzero;stroke:#000;stroke-width:1.63375545;stroke-miterlimit:4;stroke-dasharray:none;stroke-opacity:1"/><path d="M107.394 241.749h29.733v44.183h-29.733z" style="opacity:1;fill:url(#l);fill-opacity:1;fill-rule:nonzero;stroke:#000;stroke-width:1.63375545;stroke-miterlimit:4;stroke-dasharray:none;stroke-opacity:1"/><path d="M137.127 241.749h29.733v44.183h-29.733z" style="opacity:1;fill:url(#m);fill-opacity:1;fill-rule:nonzero;stroke:#000;stroke-width:1.63375545;stroke-miterlimit:4;stroke-dasharray:none;stroke-opacity:1"/><path d="M166.86 241.749h29.733v44.183H166.86z" style="opacity:1;fill:url(#n);fill-opacity:1;fill-rule:nonzero;stroke:#000;stroke-width:1.63375545;stroke-miterlimit:4;stroke-dasharray:none;stroke-opacity:1"/><path d="M18.196 285.932h29.733v44.183H18.196z" style="opacity:1;fill:url(#o);fill-opacity:1;fill-rule:nonzero;stroke:#000;stroke-width:1.63375545;stroke-miterlimit:4;stroke-dasharray:none;stroke-opacity:1"/><path d="M47.929 285.932h29.733v44.183H47.929z" style="opacity:1;fill:url(#p);fill-opacity:1;fill-rule:nonzero;stroke:#000;stroke-width:1.63375545;stroke-miterlimit:4;stroke-dasharray:none;stroke-opacity:1"/><path d="M77.662 285.932h29.733v44.183H77.662z" style="opacity:1;fill:url(#q);fill-opacity:1;fill-rule:nonzero;stroke:#000;stroke-width:1.63375545;stroke-miterlimit:4;stroke-dasharray:none;stroke-opacity:1"/><path d="M107.394 285.932h29.733v44.183h-29.733z" style="opacity:1;fill:url(#r);fill-opacity:1;fill-rule:nonzero;stroke:#000;stroke-width:1.63375545;stroke-miterlimit:4;stroke-dasharray:none;stroke-opacity:1"/><path d="M137.127 285.932h29.733v44.183h-29.733z" style="opacity:1;fill:url(#s);fill-opacity:1;fill-rule:nonzero;stroke:#000;stroke-width:1.63375545;stroke-miterlimit:4;stroke-dasharray:none;stroke-opacity:1"/><path d="M166.86 285.932h29.733v44.183H166.86z" style="opacity:1;fill:url(#t);fill-opacity:1;fill-rule:nonzero;stroke:#000;stroke-width:1.63375545;stroke-miterlimit:4;stroke-dasharray:none;stroke-opacity:1"/><path d="M230.113 103.058h82.072v45.407h-82.072z" style="opacity:1;fill:url(#u);fill-opacity:1;fill-rule:nonzero;stroke:#000;stroke-width:2.22624588;stroke-miterlimit:4;stroke-dasharray:none;stroke-opacity:1"/><path d="M211.943 158.028h122.705v131.958H211.943z" style="opacity:1;fill:url(#v);fill-opacity:1;fill-rule:nonzero;stroke:#000;stroke-width:1.8859843;stroke-miterlimit:4;stroke-dasharray:none;stroke-opacity:1"/><path d="M214.726 300.798h55.38v30.035h-55.38z" style="opacity:1;fill:url(#w);fill-opacity:1;fill-rule:nonzero;stroke:#000;stroke-width:1.62257588;stroke-miterlimit:4;stroke-dasharray:none;stroke-opacity:1"/><path d="M276.106 300.798h55.38v30.035h-55.38z" style="opacity:1;fill:#fff;fill-opacity:1;fill-rule:nonzero;stroke:#000;stroke-width:1.62257588;stroke-miterlimit:4;stroke-dasharray:none;stroke-opacity:1"/></svg>